<svg xmlns="http://www.w3.org/2000/svg" width="172.94" height="38.34" viewBox="0 0 172.94 38.34"><defs><style>.cls-1{fill:#333;}</style></defs><title>Asset 1</title><g id="Layer_2" data-name="Layer 2"><g id="Layer_1-2" data-name="Layer 1"><g id="_Group_" data-name="&lt;Group&gt;"><path id="_Compound_Path_" data-name="&lt;Compound Path&gt;" class="cls-1" d="M0,.8H4v28H0Z"/><path id="_Compound_Path_2" data-name="&lt;Compound Path&gt;" class="cls-1" d="M11.46,11.78a8.14,8.14,0,0,1,5.63-2.19,8.62,8.62,0,0,1,6.83,3.31c1.2,1.52,1.84,3.43,1.84,6.67v9.19H22V19.37c0-2.4-.44-3.51-1.12-4.35A5,5,0,0,0,17,13.18a7,7,0,0,0-5.39,2.68v12.9H7.79V10h3.67Z"/><path id="_Compound_Path_3" data-name="&lt;Compound Path&gt;" class="cls-1" d="M39.54,3.75a6.13,6.13,0,0,0-1.4-.16,3.69,3.69,0,0,0-2.87,1.32c-.52.68-.72,1.64-.72,3.36V10h5.79v3.4H34.55V28.76h-3.8V13.38H26.36V10h4.39V8.39c0-2.52.36-4.08,1.2-5.27A7.36,7.36,0,0,1,38.1,0a8.75,8.75,0,0,1,2.24.28Z"/><path id="_Compound_Path_4" data-name="&lt;Compound Path&gt;" class="cls-1" d="M45.21.8a2.51,2.51,0,0,1,2.52,2.51,2.48,2.48,0,0,1-2.52,2.48,2.43,2.43,0,0,1-2.47-2.48A2.47,2.47,0,0,1,45.21.8ZM43.33,10h3.8V28.76h-3.8Z"/><path id="_Compound_Path_5" data-name="&lt;Compound Path&gt;" class="cls-1" d="M54.4,11.78A8.12,8.12,0,0,1,60,9.59a8.65,8.65,0,0,1,6.83,3.31c1.2,1.52,1.84,3.43,1.84,6.67v9.19H64.9V19.37c0-2.4-.44-3.51-1.12-4.35a4.94,4.94,0,0,0-3.87-1.84,6.93,6.93,0,0,0-5.39,2.68v12.9h-3.8V10H54.4Z"/><path id="_Compound_Path_6" data-name="&lt;Compound Path&gt;" class="cls-1" d="M73.77.8a2.5,2.5,0,0,1,2.51,2.51,2.47,2.47,0,0,1-2.51,2.48,2.44,2.44,0,0,1-2.48-2.48A2.47,2.47,0,0,1,73.77.8ZM71.89,10h3.79V28.76H71.89Z"/><path id="_Compound_Path_7" data-name="&lt;Compound Path&gt;" class="cls-1" d="M80.24,23.76a9.13,9.13,0,0,0,5.55,2.08c1.64,0,3.27-.88,3.27-2.36,0-2.15-3.11-2.27-5.87-3.19-2.27-.76-4.31-2.2-4.31-4.83,0-4,3.59-5.87,7-5.87a9.52,9.52,0,0,1,6.23,2.07l-2,2.72a6.64,6.64,0,0,0-4-1.48c-1.84,0-3.4.88-3.4,2.36,0,1.27,1.48,1.71,3.36,2.19,3,.76,6.83,2.08,6.83,5.95,0,3.56-3.32,5.75-7,5.75a11.7,11.7,0,0,1-7.59-2.59Z"/><path id="_Compound_Path_8" data-name="&lt;Compound Path&gt;" class="cls-1" d="M137.59,38.34H133.8V10h3.67V11.7a8.77,8.77,0,0,1,5.87-2.11,8.87,8.87,0,0,1,4.59,1.19,9.93,9.93,0,0,1,4.84,8.59,9.83,9.83,0,0,1-4.8,8.55,9.56,9.56,0,0,1-4.71,1.23,8.41,8.41,0,0,1-5.67-2Zm0-15.46a6.51,6.51,0,0,0,5.15,2.68A6.13,6.13,0,0,0,149,19.37a6,6,0,0,0-6-6.19,6.75,6.75,0,0,0-5.35,2.68Z"/><path id="_Compound_Path_9" data-name="&lt;Compound Path&gt;" class="cls-1" d="M158.44,20.17a6,6,0,0,0,6.07,5.67,6.77,6.77,0,0,0,5.39-2.56l2.48,2.36a9.84,9.84,0,0,1-7.91,3.51,9.54,9.54,0,0,1-9.71-9.78c0-5.63,3.84-9.78,9.15-9.78s9,4.23,9,9.78a6.89,6.89,0,0,1,0,.8Zm.32-3.2H169A5.24,5.24,0,0,0,164,12.9,5.45,5.45,0,0,0,158.76,17Z"/></g><path id="_Path_" data-name="&lt;Path&gt;" class="cls-1" d="M122,9.48a9.44,9.44,0,0,0-8.84,5.62h0c-1.41,3.1-2.13,5.76-3.37,7.44a6.65,6.65,0,0,1-5.43,2.92,6,6,0,0,1-6.23-6.19,6,6,0,0,1,6-6.19A7,7,0,0,1,109.55,16h0l.07.09,1.7-3.45a9.93,9.93,0,0,0-7.23-3.16,9.56,9.56,0,0,0-9.79,9.79,9.66,9.66,0,0,0,10,9.78,9.94,9.94,0,0,0,8.35-4.39s.18-.29.57-1h0c.91-1.64,1.9-5.08,3.45-7.8C118,13.71,119.49,13,122,13a5.94,5.94,0,0,1,5.91,6.22,5.92,5.92,0,0,1-5.91,6.2h-.56a6.11,6.11,0,0,1-1.3-.26,8.67,8.67,0,0,1-4-2.48c-.41.82-1.15,2.21-1.58,3a9.77,9.77,0,0,0,17.14-6.43A9.52,9.52,0,0,0,122,9.48Z"/></g></g></svg>